<svg  viewBox="0 0 80.466 20.529" height="77.591" width="304.124"><defs><linearGradient y2="530.815" x2="301.145" y1="483.097" x1="305.832" gradientTransform="translate(221.85)" gradientUnits="userSpaceOnUse" id="h" xlink:href="#a"/><linearGradient id="a"><stop offset="0" stop-color="#c8a9fa"/><stop offset="1" stop-color="#c8a9fa" stop-opacity="0"/></linearGradient><linearGradient y2="531.06" x2="302.914" y1="496.162" x1="342.888" gradientTransform="translate(221.85)" gradientUnits="userSpaceOnUse" id="i" xlink:href="#b"/><linearGradient id="b"><stop offset="0" stop-color="#5e68d6" stop-opacity=".402"/><stop offset="1" stop-color="#5e68d6"/></linearGradient><linearGradient y2="548.778" x2="299.609" y1="600.904" x1="298.747" gradientTransform="translate(221.85)" gradientUnits="userSpaceOnUse" id="j" xlink:href="#c"/><linearGradient id="c"><stop offset="0" stop-color="#5e68d6"/><stop offset="1" stop-color="#5e68d6" stop-opacity=".402"/></linearGradient><linearGradient y2="564.621" x2="319.822" y1="605.849" x1="323.949" gradientTransform="translate(221.85)" gradientUnits="userSpaceOnUse" id="k" xlink:href="#d"/><linearGradient id="d"><stop offset="0" stop-color="#ffdf7e"/><stop offset="1" stop-color="#ffdf7e"/></linearGradient><linearGradient y2="527.728" x2="300.667" y1="484.051" x1="276.22" gradientTransform="translate(221.85)" gradientUnits="userSpaceOnUse" id="l" xlink:href="#b"/><linearGradient y2="576.998" x2="369.457" y1="532.627" x1="313.654" gradientTransform="translate(221.85)" gradientUnits="userSpaceOnUse" id="m" xlink:href="#e"/><linearGradient id="e"><stop offset="0" stop-color="#9eb2f3"/><stop offset="1" stop-color="#9eb2f3" stop-opacity=".224"/></linearGradient><linearGradient y2="172.419" x2="193.308" y1="115.798" x1="100.082" gradientUnits="userSpaceOnUse" id="n" xlink:href="#f"/><linearGradient id="f"><stop offset="0" stop-color="#5e68d6" stop-opacity=".402"/><stop offset="1" stop-color="#5e68d6" stop-opacity=".309"/></linearGradient><linearGradient y2="172.419" x2="193.308" y1="115.798" x1="100.082" gradientTransform="translate(-.155 1.76)" gradientUnits="userSpaceOnUse" id="o" xlink:href="#g"/><linearGradient id="g"><stop offset="0" stop-color="#9eb2f3"/><stop offset="1" stop-color="#9eb2f3" stop-opacity="0"/></linearGradient></defs><path d="M28.106 10.64s-.475.516.049.85c.523.335 2.985-.598 2.985-.598m-13.11-.055s-2.864 4.102-4.619 4.71c-1.754.607.308-1.52 2.74-2.796 1.216-.638 3.452-1.606 4.552-2.102a6.06 6.06 0 0 1 2.112-.52c-.957 0-2.851.821-2.725 1.393.123.32.686.25 1.51-.127.825-.377 1.462-.907 1.786-1.135.646-.456 2.77-1.853 2.893-2.005.124-.152-3.14 1.762-3.91 2.765-.769 1.002 1.632.121 2.925-.243 1.293-.365 2.925-.881 3.079-.547.154.334-1.2 1.002-2.032 1.124-.831.121.154-.827.616-1.04m-14.315.431s-1.047 1.246-.246 1.064c.8-.183 4.217-1.185 5.08-1.398.861-.213.95.048.95.048s-1.556 1.546-2.537 1.404c-.447-.064-.2-.538.327-.85.526-.314 1.26-.602 1.26-.602M.196 12.041s3.462-2.944 3.061-1.668c-.4 1.276 1.096.825 1.68.613.586-.213 1.89-.704 2.075-.704.185 0-1.267 1.588-.805 1.709.462.122 4.013-1.12 5.306-1.484 1.293-.364 1.62-.218 1.097.269-.523.486-2.167 1.329-2.309 1.093-.225-.374.76-1.121 1.212-1.362" fill="none" stroke="#5e68d6" stroke-width=".394" stroke-linecap="round" stroke-linejoin="round"/><g stroke="#5e68d6" stroke-width="3" stroke-linecap="round" stroke-linejoin="round"><path d="M58.222 10.529s.382.538 1.023.31c.642-.228 1.985-1.042 2.045-1.134.06-.093-1.177 1.54-1.2 1.844-.024.305-.015.62 1.445-.145 1.46-.764 3.287-1.731 3.409-1.795.121-.064-1.917 2.264-1.917 2.264l1.888-2.172s-.287.888 1.707.537c1.993-.351 2.298-.48 2.448-.636.15-.155-1.626 1.567-1.615 1.992.01.425 2.286-.543 2.805-.737.501-.229 1.941-1.093 2.06-1.248.12-.155.916 1.745.032 2.1-.885.355-1.336-.242-.729-.621.607-.38 2.992-1.405 4.28-1.618 1.288-.213 3.81-.364 4.366-.286" fill="none" stroke-width=".39422999999999997"/><path d="M61.921 8.648a.478.478 0 0 0-.064.074c-.008.013-.019.024-.024.038a.064.064 0 0 0-.003.016c.003.026-.026.04-.05.05.066-.053.031-.036.032-.016l.002.014v.019c-.045.031-.04.038-.04.015v-.007c-.001-.01.006-.017.01-.026l.007-.021a.12.12 0 0 1 .012-.016c.005-.009.012-.015.018-.023a.086.086 0 0 1 .055-.047c.003 0 .004.002.006.005 0 0 0 0 0 0l-.043.03h0s0 0 0 0c.003.002.004.001.003.003-.03.015.042-.046.021-.02-.004.01-.014.016-.016.024a.21.21 0 0 0-.014.016c-.005.005-.003.013-.006.02-.003.01-.01.016-.013.025v.006c0 .026.001.016-.04.047V8.87v-.014-.002l-.002-.014c-.003-.026.018-.033.043-.053.018-.008 0 0-.028.028h.003c.002-.002-.002-.008 0-.01l.001-.017c.005-.015.015-.026.024-.039a.434.434 0 0 1 .064-.075l.042-.027zM69.602 8.687c-.021.024-.035.053-.056.077-.01.011-.014.025-.02.039a.1.1 0 0 0-.014.024c-.002.006-.002.012-.002.018.001.009-.006.014-.011.02-.003.006-.007.01 0 .013l.006.001-.036.037h0l-.007-.002c-.009-.005-.01-.01-.006-.02.003-.007.012-.01.013-.018a.17.17 0 0 1 0-.02c.004-.008.008-.018.014-.024.009-.012.008-.03.02-.04.022-.024.036-.052.057-.076l.042-.028z" fill="#1a1a1a" stroke-width=".39422999999999997"/></g><path d="M528.339 476.37c-4.106 0-5.462 9.449-5.644 11.22.135-1.579-.776-4.362-3.793-4.082-4.443.411-3.641 8.296-3.874 12.724 5.614 11.944 6.057 23.35 7.842 40.67 0 0 6.608-34.854 14.395-42.047 0 0 2.074-10.485-1.418-11.237-2.836-.746-4.157 4.652-4.157 4.652s1.126-11.9-3.351-11.9z" fill="url(#h)" transform="matrix(.15311 0 0 .15311 -35.457 -72.937)"/><path d="M522.87 536.903s6.56-46.12 22.38-47.015c15.819-.896 8.357 16.42-1.792 21.793-10.148 5.374-19.09 15.59-20.588 25.222z" fill="url(#i)" transform="matrix(.15311 0 0 .15311 -35.457 -72.937)"/><path d="M512.915 537.327s-27.555 32.707-26.52 49.462c1 16.225 15.312 33.819 26.072 16.216 11.719-19.171 3.485-6.721 18.943 3.24 14.675 9.456 28.068-13.39 25.307-26.9-2.571-12.581-12.226-28.557-27.797-40.052 5.614 4.733 7.277 28.335 4.441 26.842-2.413-5.609-8.656-13.434-8.656-13.434s-.895 1.194-2.09 6.568c-1.193 5.374-1.64 22.987-1.64 22.987s-3.396-5.153-5.206-12.145c-2.872-11.088.43-15.277-.615-16.321-1.045-1.045-9.552 13.54-9.552 13.54s-1.213-1.463-1.193-7.464c.036-11.248 8.506-22.54 8.506-22.54z" fill="url(#j)" transform="matrix(.15311 0 0 .15311 -35.457 -72.937)"/><path d="M539.737 571.34c4.968 8.948 19.044 35.305-.588 37.22 2.878-3.063 8.701-16.641.588-37.22z" fill="url(#k)" transform="matrix(.15311 0 0 .15311 -35.457 -72.937)"/><path d="M522.87 536.903s-1.381-46.762-16.851-50.187c-15.47-3.426-10.886 14.863-1.733 21.798 9.154 6.934 18.651 18.64 18.584 28.389z" fill="url(#l)" transform="matrix(.15311 0 0 .15311 -35.457 -72.937)"/><path d="M529.109 534.313s12.859-13.313 25.542-.139c12.684 13.175 16.916 11.454 20.05 10.672 3.135-.781-6.273 7.52-6.273 7.52.125-.338 10.93 7.161 2.71 15.29-8.37 6.858-13.763-7.646-16.055-12.25 0 0-7.07-14.583-11.585-18.516-2.852-2.765-7.204-6.583-14.39-2.577z" fill="url(#m)" transform="matrix(.15311 0 0 .15311 -35.457 -72.937)"/><path d="M47.143 4.473s.543-2.261 1.396-2.342c.852-.08.894.864.894.864s-1.632-.76-2.29 1.478zM42.698 4.201s-.62-2.598-1.477-2.614c-.856-.016-.752 1.078-.752 1.078s1.405-.646 2.23 1.536z" fill="#ffdf7e"/><path d="M95.82 120.1s16.619-17.202 33.01-.178c16.393 17.023 21.862 14.8 25.913 13.79 4.052-1.01-8.107 9.715-8.107 9.715.162-.436 14.125 9.254 3.501 19.757-10.815 8.862-17.786-9.879-20.748-15.828 0 0-9.137-18.843-14.972-23.925-3.687-3.573-9.31-8.507-18.597-3.33z" fill="url(#o)" transform="matrix(-.11801 -.0104 -.01039 .11804 56.316 -4.175)" stroke-width="1.109"/><path d="M41.693 14.873c-.76 1.37-2.713 6.244.104 5.597-.44-.469-1.346-2.446-.104-5.597z" fill="#ffdf7e"/></svg>