<svg version="1.1" viewBox="0 0 612.5 81.643" xmlns="http://www.w3.org/2000/svg">
  <g stroke-linejoin="round">
    <path d="m213.89 41.65s-3.6114 3.9272 0.371 6.4704c3.9824 2.5433 22.717-4.5522 22.717-4.5522m-99.766-0.4182s-21.786 31.212-35.139 35.837c-13.353 4.6241 2.3426-11.56 20.849-21.271 9.2532-4.8553 26.268-12.224 34.633-16 8.3652-3.7762 16.075-3.96 16.075-3.96-7.2835 0-21.697 6.2538-20.738 10.602 0.93807 2.433 5.2252 1.9024 11.497-0.96372 6.2719-2.8662 11.123-6.9034 13.583-8.6375 4.9194-3.468 21.083-14.103 22.02-15.259 0.93704-1.156-23.894 13.41-29.751 21.04-5.8565 7.6297 12.416 0.92482 22.255-1.8496 9.8389-2.7744 22.255-6.7049 23.426-4.1616 1.1713 2.5432-9.1361 7.6297-15.461 8.5545-6.325 0.92481 1.1713-6.2907 4.6852-7.9092m-108.93 3.2781s-7.9648 9.4794-1.8741 8.0921c6.0907-1.3872 32.093-9.0169 38.653-10.635 6.5593-1.6185 7.2343 0.36056 7.2343 0.36056s-11.838 11.77-19.305 10.69c-3.3986-0.49144-1.519-4.0957 2.4864-6.4773 4.0054-2.3815 9.5843-4.5738 9.5843-4.5738m-131.48 12.403s26.341-22.406 23.295-12.696c-3.0454 9.7106 8.3348 6.2836 12.786 4.6652 4.4509-1.6184 14.381-5.3531 15.787-5.3531s-9.6413 12.079-6.1275 13.003c3.5139 0.92481 30.537-8.5162 40.375-11.291 9.8388-2.7745 12.333-1.6568 8.3503 2.0424-3.9824 3.6993-16.491 10.113-17.569 8.3233-1.7154-2.8462 5.7808-8.5353 9.2191-10.366" fill="none" stroke="#000" stroke-linecap="round" stroke-width="3"/>
    <g stroke-linecap="round" stroke-width="3">
      <path d="m443.06 41.77s2.9091 4.0938 7.7888 2.359c4.8796-1.7348 15.106-7.9248 15.558-8.6293 0.45193-0.70455-8.9561 11.721-9.1354 14.038-0.17943 2.317-0.10949 4.7106 11-1.1037 11.109-5.8144 25.014-13.176 25.94-13.661 0.92579-0.48455-14.587 17.229-14.587 17.229l14.37-16.53s-2.1827 6.7586 12.985 4.0856c15.168-2.673 17.488-3.6532 18.631-4.8367 1.1435-1.1835-12.37 11.921-12.293 15.157 0.0769 3.2359 17.401-4.1303 21.349-5.6118 3.8113-1.737 14.772-8.3159 15.681-9.4938 0.9093-1.178 6.9669 13.276 0.23578 15.979-6.7312 2.7039-10.162-1.84-5.5442-4.7249 4.618-2.8849 22.765-10.689 32.568-12.31 9.8031-1.6205 28.99-2.7701 33.222-2.1768" fill="none" stroke="#000"/>
      <path d="m471.21 27.46c-0.17732 0.17732-0.35331 0.35369-0.49084 0.56354-0.0576 0.0969-0.14054 0.17957-0.18035 0.28607-0.0123 0.0393-0.0199 0.0798-0.022 0.12106 0.0266 0.20053-0.19497 0.3129-0.37841 0.38156 0.49814-0.40441 0.23457-0.27211 0.24497-0.12209 5e-3 0.0358 8e-3 0.0713 0.0129 0.10715 7.9e-4 4e-3 9.5e-4 0.0104 1e-3 0.0132 2e-3 0.0355 2e-3 0.0709 3e-3 0.10671 2.9e-4 0.0104 5.2e-4 0.0149 8.4e-4 0.025-0.34554 0.24082-0.30831 0.29193-0.31482 0.11674-1e-3 -0.0187-7.6e-4 -0.0346-1e-3 -0.0521-2e-3 -0.075 0.0535-0.13517 0.0863-0.19915 0.0206-0.0527 0.0255-0.1096 0.0457-0.16291 0.0271-0.0428 0.0618-0.0818 0.0962-0.11997 0.0331-0.0658 0.0926-0.11172 0.13291-0.17348 0.0764-0.16529 0.23941-0.31644 0.41911-0.35785 0.025-6.3e-4 0.0317 0.0142 0.0442 0.036 3.7e-4 1e-3 8e-4 4e-3 1e-3 4e-3l-0.32495 0.21821c7.5e-4 6.9e-4 1e-3 9.7e-4 4e-3 9e-4 0.0191 0.0182 0.0253 0.0143 0.0156 0.0307-0.22553 0.1141 0.31917-0.35207 0.16525-0.14807-0.0339 0.0695-0.10653 0.11491-0.12614 0.18017-0.0353 0.0367-0.0692 0.0745-0.10096 0.11451-0.0411 0.0387-0.0286 0.10644-0.0498 0.15754-0.0202 0.0675-0.0806 0.11933-0.0946 0.18565 5.6e-4 0.0187 2e-3 0.0346 1e-3 0.0517 6e-4 0.19367 3e-3 0.1158-0.30919 0.35382-1.4e-4 -0.0104-1.5e-4 -0.0149-3.5e-4 -0.025-5.9e-4 -0.0342-2e-3 -0.0684-1e-3 -0.10275-5.6e-4 -6e-3 -1e-3 -0.0104-1e-3 -0.0149-5e-3 -0.036-8e-3 -0.072-0.013-0.10818-0.0235-0.19996 0.13695-0.2539 0.32457-0.40381 0.13783-0.0568 6e-3 -6e-3 -0.21376 0.21589-6e-3 6e-3 0.0187 5.5e-4 0.0249-5e-3 0.0129-0.0135-0.0117-0.0554-3e-3 -0.0697-2e-3 -0.0448 4e-3 -0.0885 0.0156-0.13179 0.0325-0.11314 0.11117-0.19787 0.17638-0.29533 0.13576-0.21339 0.30798-0.39323 0.48814-0.57062l0.32488-0.20732z" fill="#1a1a1a" stroke="#080200"/>
      <path d="m529.66 27.76c-0.16229 0.18105-0.27011 0.39977-0.42489 0.58561-0.0829 0.083-0.11214 0.18947-0.15755 0.29145-0.0444 0.0559-0.0769 0.11835-0.10425 0.18369-0.0138 0.0445-0.0127 0.0919-0.0154 0.13823 8e-3 0.0678-0.0466 0.1079-0.0853 0.15526-0.0176 0.0459-0.0493 0.0776 6e-3 0.0973 0.015 6e-3 0.0282 5e-3 0.0441 9e-3l-0.27618 0.27527c-0.015-4e-3 -0.0342-0.01-0.0501-0.0137-0.0719-0.036-0.0758-0.0761-0.0468-0.14682 0.0204-0.0571 0.0918-0.0803 0.0957-0.13897-8.9e-4 -0.0504 2e-3 -0.10075 7e-3 -0.15092 0.0265-0.0662 0.0514-0.13792 0.10231-0.18893 0.0652-0.0872 0.0606-0.22315 0.15539-0.29856 0.16135-0.18134 0.26541-0.40194 0.42668-0.5843l0.32305-0.2113z" fill="#1a1a1a" stroke="#080200"/>
    </g>
    <g fill="none" stroke="#000" stroke-width="2">
      <path d="m337.94 36.967s3.805-26.66 12.952-27.174c9.1471-0.5137 4.8281 9.4941-1.041 12.598-5.8691 3.1039-11.042 9.0074-11.911 14.576z" stroke-linecap="round"/>
      <path d="m332.16 38.085s-15.941 18.902-15.347 28.587c0.57487 9.3798 8.8455 19.555 15.072 9.3811 6.7806-11.08 2.0168-3.8844 10.952 1.878 8.4827 5.4705 16.232-7.734 14.64-15.544-1.4837-7.2744-7.062-16.512-16.062-23.162" stroke-linecap="round"/>
      <path d="m332.16 38.085s-4.9008 6.5255-4.9245 13.028c-0.0127 3.4689 0.68844 4.3149 0.68844 4.3149s4.9225-8.4293 5.526-7.8248c0.60375 0.60429-1.3062 3.0247 0.35147 9.4355 1.0452 4.0422 3.0066 7.0224 3.0066 7.0224s0.26338-10.182 0.95508-13.288c0.69172-3.1062 1.2098-3.7963 1.2098-3.7963s3.6074 4.5254 5.0014 7.7686c1.6392 0.86364 0.68373-12.782-2.561-15.519"/>
      <path d="m330.8 77.548s-4.4778-1.8345-5.0051-6.2875c-0.75528-6.378 1.1557-11.809 1.1557-11.809s-6.9189 14.648-0.62219 20.864" stroke-linecap="round"/>
      <path d="m347.47 58.143c2.8138 5.0726 10.867 20.747-0.41012 20.759 1.6318-1.7357 5.0042-9.0935 0.41012-20.759z" stroke-linecap="round"/>
      <path d="m337.94 36.967s-0.78633-27.033-9.7306-29.017c-8.944-1.9843-6.298 8.5897-1.0073 12.601 5.2907 4.0111 10.78 10.781 10.738 16.416z"/>
      <path d="m333.42 13.451s-1.3345-6.8606 1.8589-8.2402c3.1934-1.3792 2.5548 3.4557 2.5548 3.4557s0.63969-7.3374 3.2284-7.3363c2.5888 0.00114 2.1542 7.077 2.1542 7.077s0.60521-2.6748 2.2446-2.2426 0.77385 6.2997 0.77385 6.2997" stroke-linecap="round" style="paint-order:normal"/>
      <path d="m342.39 35.712s7.0844-7.3265 14.066-0.06996c6.9813 7.2565 9.3124 6.3102 11.039 5.8807 1.7264-0.42946-3.4565 4.138-3.4565 4.138 0.0692-0.18566 6.0172 3.946 1.4883 8.4193-4.6102 3.7737-7.5766-4.2127-8.8375-6.7481 0 0-3.8895-8.0305-6.3749-10.197-1.5702-1.5232-3.9655-3.6265-7.9234-1.4227z"/>
      <path d="m345.1 34.192s7.9599-2.1746 13.795 8.8577" stroke-linecap="round"/>
      <path d="m347.15 18.691s2.6885-8.3583 5.9225-8.4178c3.234-0.05958 2.9881 4.0895 2.9881 4.0895s-5.7948-3.9077-8.9106 4.3281z"/>
      <path d="m330.77 17.829s-2.3755-9.5808-5.6095-9.6432c-3.2339-0.062441-2.8087 4.1479-2.8087 4.1479s5.3099-2.7435 8.418 5.4952z"/>
      <path d="m331.39 33.223s-7.736-2.8711-14.526 7.6008" stroke-linecap="round"/>
      <path d="m333.95 34.977s-6.4076-7.9253-14.004-1.3157c-7.5966 6.6096-9.8348 5.4605-11.516 4.8797-1.6816-0.5807 3.0763 4.428 3.0763 4.428-0.0525-0.19107-6.3431 3.3975-2.2282 8.2544 4.2579 4.1673 7.92-3.525 9.4006-5.9387 0 0 4.5856-7.6544 7.2532-9.5923 1.699-1.3781 4.2711-3.261 8.0183-0.71521z"/>
    </g>
  </g>
</svg>
